<?xml version="1.0" encoding="UTF-8" standalone="no"?>
<!DOCTYPE svg PUBLIC "-//W3C//DTD SVG 1.1//EN" "http://www.w3.org/Graphics/SVG/1.1/DTD/svg11.dtd">
<svg width="100%" height="100%" viewBox="0 0 201 200" version="1.1" xmlns="http://www.w3.org/2000/svg" xmlns:xlink="http://www.w3.org/1999/xlink" xml:space="preserve" xmlns:serif="http://www.serif.com/" style="fill-rule:evenodd;clip-rule:evenodd;stroke-linejoin:round;stroke-miterlimit:2;">
    <g transform="matrix(1,0,0,1,-0.296437,-0)">
        <g transform="matrix(0.303167,0,0,0.30303,0.296437,0)">
            <path d="M305.114,0.624C313.832,-0.52 323.041,0.259 331.827,0.259C364.376,0.259 396.333,5.312 427.476,14.89C467.22,27.114 504.238,46.657 536.912,72.368C576.958,103.881 610.141,145.215 631.432,191.604C671.269,278.394 670.977,383.577 630.164,470.002C603.775,525.882 561.44,572.652 510.199,606.759C468.39,634.588 419.492,651.622 369.742,657.653C306.416,665.33 237.957,654.111 181.03,624.923C74.161,570.128 1.506,459.847 0.069,338.991C-0.207,315.69 0.155,292.25 4.768,269.176C12.281,231.597 25.381,195.272 45.054,162.299C66.336,126.628 93.825,95.151 126.742,69.773C165.345,40.012 210.21,18.606 257.721,7.715C269.195,5.086 280.715,3.628 292.294,2.219L295.952,1.774C299.002,1.403 302.056,1.026 305.114,0.624ZM194.558,550.066C179.842,551.644 164.319,554.322 151.689,562.588C154.532,563.272 157.791,562.593 160.757,562.588C167.882,562.576 175.075,562.308 182.192,562.62C200.01,563.402 218.574,566.252 235.78,570.97C257.809,577.011 277.213,588.899 298.436,596.915C320.825,605.372 343.113,608 366.863,608C378.831,608 390.708,607.964 402.313,604.697C396.257,601.472 387.587,602.077 380.878,600.734C366.321,597.819 352.009,594.259 338.008,589.264C327.703,585.587 317.777,581.05 307.897,576.415L301.548,573.43C292.378,569.121 283.185,564.869 273.703,561.287C248.771,551.869 221.143,547.216 194.558,550.066ZM216.818,487.452C187.654,487.452 158.158,492.589 131.902,505.821C125.541,509.027 119.495,512.847 113.765,517.08C112.019,518.371 108.923,520.029 108.278,522.272C107.623,524.547 109.964,526.454 111.292,527.91C117.854,524.412 124.089,520.71 131.078,518.054C176.277,500.884 231.07,504.484 276.176,520.227C298.671,528.078 319.396,539.819 341.306,549.027C365.809,559.325 390.836,566.002 417.152,569.426C448.194,573.464 483.586,570.192 511.961,556.184C521.931,551.262 535.775,543.762 539.991,532.864C534.784,533.319 530.099,535.55 525.152,537.088C517.285,539.533 509.324,541.608 501.243,543.227C473.855,548.713 444.731,549.846 417.152,544.866C391.16,540.173 367.01,530.747 342.973,520.831L339.905,519.563C337.86,518.716 335.815,517.867 333.769,517.019L330.7,515.746C318.42,510.661 306.093,505.636 293.489,501.236C269.004,492.69 242.762,487.452 216.818,487.452ZM267.932,39.461C232.972,47.183 201.655,62.221 171.475,81.179C153.953,92.184 137.193,103.459 122.009,117.623C99.43,138.689 82.173,164.292 67.123,191.035C51.615,218.588 41.673,250.7 36.867,281.859C32.153,312.427 31.377,344.566 36.777,375.16C43.527,413.408 56.375,449.3 76.666,482.498C83.485,479.313 88.326,472.052 93.979,467.161C105.394,457.285 117.379,448.131 130.254,440.232C135.02,437.308 139.916,435.038 145.093,432.957C147.046,432.172 150.239,431.454 151.158,429.309C152.619,425.903 149.918,419.973 149.454,416.444C148.129,406.348 147.329,396.081 147.579,385.894C148.304,356.225 153.849,326.142 164.404,298.372C172.359,277.448 184.511,258.45 198.907,241.401C203.792,235.615 208.985,230.23 214.345,224.888C217.512,221.731 221.443,219.029 223.413,214.979C213.077,214.986 202.738,217.966 192.91,220.993C171.735,227.512 151.108,237.186 133.551,250.834C125.543,257.06 119.678,265.221 112.104,271.774C109.781,273.784 105.619,276.479 102.409,274.962C97.559,272.671 98.307,263.127 97.752,258.74C95.615,241.866 102.006,220.524 110.129,205.897C123.169,182.417 147.28,162.368 175.597,163.068C187.825,163.37 198.531,167.619 210.222,170.393C207.258,166.181 203.283,163.111 199.505,159.659C190.248,151.2 180.122,143.474 169.001,137.63C164.527,135.279 159.71,133.851 154.986,132.124C152.611,131.256 149.62,130.061 148.726,127.421C147.072,122.533 155.875,118.005 159.108,115.943C171.608,107.973 186.935,101.418 201.978,101.048C225.487,100.471 248.457,113.516 258.141,135.714C261.546,143.518 262.552,151.769 263.22,160.097L263.342,161.66L263.516,164.005C263.535,164.266 263.555,164.527 263.574,164.787L263.69,166.352L263.81,167.916C271.193,161.897 276.386,153.039 283.596,146.592C300.457,131.513 323.533,124.82 345.428,131.608C365.215,137.741 382.412,151.396 392.533,169.567C395.181,174.321 402.569,185.941 397.232,190.676C393.054,194.384 387.757,191.494 383.351,189.957C380.015,188.793 376.568,188.055 373.109,187.371L371.222,187.002C370.593,186.879 369.964,186.756 369.336,186.63C357.355,184.228 343.419,184.477 331.412,186.588C323.65,187.953 316.063,190.716 308.329,191.86L308.329,193.512C329.478,193.687 349.937,205.752 360.372,224.062C364.695,231.647 366.854,240.329 368.511,248.832C370.558,259.341 369.119,270.791 366.248,281.033C365.285,284.467 363.537,290.289 359.43,291.08C356.528,291.639 354.063,288.749 352.406,286.8C348.062,281.693 343.93,276.837 338.832,272.426C325.937,261.269 312.302,250.977 298.436,241.053C291.074,235.784 283.01,228.933 274.527,225.713C276.912,231.458 279.249,236.799 280.06,243.052C282.446,261.445 274.746,278.757 263.188,292.592C259.661,296.815 255.889,301.068 251.444,304.348C249.6,305.709 247.287,307.486 244.848,307.101C237.202,305.893 236.292,294.369 235.12,288.464C231.15,268.465 232.744,248.603 238.253,229.016C233.352,231.501 229.809,236.94 226.732,241.401C219.961,251.217 214.086,261.6 209.873,272.776C193.095,317.296 193.257,369.44 214.992,412.3C217.419,417.086 221.102,416.444 225.886,416.444C226.607,416.444 227.329,416.439 228.051,416.433L230.22,416.41C234.558,416.365 238.906,416.346 243.199,416.919C245.427,417.216 248.52,416.951 250.284,418.593C252.395,420.56 251.27,423.932 250.783,426.352C249.425,433.117 248.97,439.266 248.97,446.168C257.994,444.769 260.496,430.302 263.694,423.049C267.319,414.833 271.008,406.608 274.362,398.279C276.01,394.185 278.216,389.608 277.637,385.068C276.987,379.966 273.301,374.557 270.733,370.206C265.87,361.971 260.343,353.498 256.764,344.61C253.902,337.505 256.567,328.627 264.635,326.088C269.085,324.688 273.833,327.434 276.729,330.651C282.802,337.394 286.722,347.429 291.131,355.344L325.526,417.269C328.447,422.513 331.375,427.751 334.363,432.957C335.529,434.988 336.715,438.124 339.103,438.99C341.23,439.761 344.137,438.665 346.252,438.241C351.744,437.142 357.228,435.954 362.74,434.959C369.346,433.765 379.414,433.989 384.175,428.829C377.212,426.623 369.164,426.754 361.916,427.251C357.563,427.55 352.738,429.107 348.738,426.565C342.785,422.781 338.827,414.043 335.185,408.187C326.205,393.747 317.744,379.091 309.144,364.426L307.768,362.091L305.002,357.426C303.621,355.091 302.251,352.751 300.922,350.39C299.895,348.563 298.372,346.156 299.844,344.143C301.389,342.028 304.758,341.903 307.8,341.9L308.404,341.9C309.599,341.901 310.719,341.902 311.626,341.783C323.9,340.168 336.345,338.83 348.725,338.83C347.762,335.478 345.006,331.689 345.887,328.1C347.859,320.069 359.413,317.557 364.787,323.319C368.394,327.187 370.491,332.511 372.838,337.179C375.935,343.341 379.462,349.297 382.779,355.344C388.584,365.93 394.925,376.225 400.896,386.719C401.388,387.585 401.895,388.446 402.408,389.306L403.179,390.597C405.757,394.9 408.344,399.232 409.733,404.059C388.997,403.11 373.431,379.04 364.389,362.775C363.668,365.379 364.84,367.703 365.778,370.206C367.726,375.403 370.054,380.353 372.984,385.068C377.169,391.801 381.966,398.734 388.298,403.622C399.534,412.295 414.35,412.343 427.87,411.416C436.539,410.821 447.372,406.874 455.9,409.552C464.414,412.225 467.841,421.615 462.785,428.828C458.997,434.231 453.942,436.271 447.656,437.085C452.101,446.621 457.925,455.471 462.146,465.158C463.904,469.194 465.737,475.379 469.951,477.509C472.756,478.926 476.775,477.606 479.808,477.543C476.765,469.49 471.065,462.656 468.266,454.425C476.8,454.815 485.053,459.268 492.999,462.11C508.629,467.7 524.063,473.812 539.474,479.979L546.587,482.828C552.925,485.367 559.302,487.88 565.548,490.64C567.834,491.65 570.998,494.011 573.524,492.558C575.585,491.371 576.918,488.542 578.189,486.626C581.745,481.264 584.965,475.697 588.155,470.112C600.929,447.747 610.299,423.24 616.558,398.279C637.203,315.956 619.492,225.123 569.881,156.356C550.819,129.936 526.847,107.094 500.419,88.178C434.28,40.841 347.508,21.884 267.932,39.461ZM403.137,449.99C385.604,454.561 367.535,458.704 349.55,461.03C351.915,469.083 357.695,476.916 361.926,484.149C363.562,486.945 365.312,490.691 368.544,491.904C372.196,493.275 376.608,491.051 380.053,489.929C378.458,485.564 375.774,481.636 373.577,477.543C372.671,475.856 371.271,473.858 372.017,471.854C373.427,468.067 379.283,468.29 382.527,467.632C391.073,465.898 399.531,463.734 408.084,462.021C411.235,461.389 415.622,459.678 418.789,460.735C421.16,461.526 422.589,463.48 423.941,465.517L424.547,466.436C425.356,467.659 426.185,468.853 427.219,469.787C430.676,472.909 435.847,473.389 440.236,474.241C437.558,468.213 433.106,462.94 430.252,456.902C428.592,453.39 427.228,448.224 423.595,446.194C418.59,443.399 408.254,448.656 403.137,449.99ZM292.665,409.838C291.839,420.306 288.628,428.823 283.596,437.911C289.363,438.641 295.245,438.901 300.909,440.305C305.154,441.357 309.066,443.363 313.275,444.517C311.025,438.359 306.849,432.865 303.614,427.177C300.347,421.436 297.424,414.46 292.665,409.838Z" style="fill-rule:nonzero;"/>
        </g>
    </g>
</svg>
